<svg width="39.000000" height="51.000000" viewBox="0 0 39 51" fill="none" xmlns="http://www.w3.org/2000/svg" xmlns:xlink="http://www.w3.org/1999/xlink">
	<desc>
			Created with Pixso.
	</desc>
	<defs/>
	<path id="Vector" d="M23.86 0C26.14 0 28 1.85 28 4.13L28 46.13C28 48.42 26.14 50.27 23.86 50.27L4.13 50.27C1.85 50.27 0 48.42 0 46.13L0 4.13C0 1.85 1.85 0 4.13 0L23.86 0Z" stroke="#14161D" stroke-opacity="1.000000" stroke-width="1.000000"/>
	<path id="Vector" d="M7.83 21.79C7.83 21.5 8.08 21.26 8.39 21.26L25.18 21.26C25.49 21.26 25.74 21.5 25.74 21.79C25.74 22.08 25.49 22.32 25.18 22.32L8.39 22.32C8.08 22.32 7.83 22.08 7.83 21.79ZM8.95 23.91C8.95 23.61 9.2 23.38 9.51 23.38L18.46 23.38C18.77 23.38 19.02 23.61 19.02 23.91C19.02 24.2 18.77 24.43 18.46 24.43L9.51 24.43C9.2 24.43 8.95 24.2 8.95 23.91ZM8.39 25.49C8.08 25.49 7.83 25.73 7.83 26.02C7.83 26.31 8.08 26.55 8.39 26.55L24.06 26.55C24.37 26.55 24.62 26.31 24.62 26.02C24.62 25.73 24.37 25.49 24.06 25.49L8.39 25.49ZM8.95 28.13C8.95 27.84 9.2 27.61 9.51 27.61L16.23 27.61C16.54 27.61 16.79 27.84 16.79 28.13C16.79 28.43 16.54 28.66 16.23 28.66L9.51 28.66C9.2 28.66 8.95 28.43 8.95 28.13ZM9.51 29.72C9.2 29.72 8.95 29.96 8.95 30.25C8.95 30.54 9.2 30.78 9.51 30.78L16.23 30.78C16.54 30.78 16.79 30.54 16.79 30.25C16.79 29.96 16.54 29.72 16.23 29.72L9.51 29.72Z" fill="#E4E8F4" fill-opacity="1.000000" fill-rule="evenodd"/>
	<path id="Vector" d="M3.28 25.98C3.09 25.98 2.94 26.12 2.94 26.3C2.94 26.48 3.09 26.62 3.28 26.62C3.68 26.62 3.99 26.74 4.23 26.99C4.95 27.71 4.85 29.22 4.85 29.26L4.85 33.34C4.85 34.36 5.15 35.15 5.74 35.69C6.46 36.33 7.36 36.37 7.6 36.37C7.63 36.37 7.65 36.37 7.66 36.37C7.85 36.36 7.99 36.21 7.98 36.04C7.97 35.86 7.81 35.72 7.62 35.73C7.62 35.74 6.82 35.77 6.21 35.22C5.76 34.82 5.53 34.18 5.53 33.34L5.52 29.28C5.53 29.21 5.64 27.47 4.73 26.55C4.63 26.46 4.53 26.37 4.42 26.3C4.53 26.23 4.63 26.15 4.73 26.05C5.64 25.12 5.53 23.39 5.53 23.34L5.53 19.26C5.53 18.42 5.75 17.79 6.21 17.38C6.8 16.84 7.61 16.86 7.63 16.87C7.81 16.88 7.97 16.74 7.98 16.56C7.99 16.39 7.85 16.24 7.66 16.23C7.61 16.23 6.56 16.18 5.75 16.91C5.15 17.45 4.85 18.24 4.85 19.26L4.85 23.36C4.88 23.78 4.83 25.01 4.23 25.61C3.99 25.86 3.68 25.98 3.28 25.98Z" fill="#3980FF" fill-opacity="1.000000" fill-rule="nonzero"/>
	<path id="Vector" d="M6.38 0L21.61 0C21.45 1.07 20.53 1.9 19.4 1.9L8.59 1.9C7.46 1.9 6.54 1.07 6.38 0Z" fill="#14161D" fill-opacity="1.000000" fill-rule="nonzero"/>
	<path id="Vector" d="M21.61 0C21.45 1.07 20.53 1.9 19.4 1.9L8.59 1.9C7.46 1.9 6.54 1.07 6.38 0L21.61 0Z" stroke="#14161D" stroke-opacity="1.000000" stroke-width="1.000000"/>
	<path id="Vector" d="M32.09 9L23.9 9C20.64 9 18 11.64 18 14.9L18 23.09C18 26.35 20.64 29 23.9 29L32.09 29C35.35 29 38 26.35 38 23.09L38 14.9C38 11.64 35.35 9 32.09 9Z" fill="#F4F6FA" fill-opacity="1.000000" fill-rule="nonzero"/>
	<path id="Vector" d="M32.09 9C35.35 9 38 11.64 38 14.9L38 23.09C38 26.35 35.35 29 32.09 29L23.9 29C20.64 29 18 26.35 18 23.09L18 14.9C18 11.64 20.64 9 23.9 9L32.09 9Z" stroke="#14161D" stroke-opacity="1.000000" stroke-width="1.000000"/>
	<path id="Vector" d="M23.76 11L32.23 11C34.31 11 36 12.68 36 14.76L36 23.23C36 25.31 34.31 27 32.23 27L23.76 27C21.68 27 20 25.31 20 23.23L20 14.76C20 12.68 21.68 11 23.76 11Z" fill="#E4E8F4" fill-opacity="1.000000" fill-rule="evenodd"/>
	<path id="Vector" d="M29.7 15.29L32.7 18.29L27.3 23.7L24.3 23.7L24.3 20.7L29.7 15.29ZM27.9 17.09L30.9 20.09M28.8 23.7L33 23.7" stroke="#000000" stroke-opacity="1.000000" stroke-width="1.000000"/>
</svg>
