<svg width="29.000000" height="51.000000" viewBox="0 0 29 51" fill="none" xmlns="http://www.w3.org/2000/svg" xmlns:xlink="http://www.w3.org/1999/xlink">
	<desc>
			Created with Pixso.
	</desc>
	<defs/>
	<path id="Vector" d="M23.86 0.13C26.14 0.13 28 1.98 28 4.26L28 46.26C28 48.55 26.14 50.4 23.86 50.4L4.13 50.4C1.85 50.4 0 48.55 0 46.26L0 4.26C0 1.98 1.85 0.13 4.13 0.13L23.86 0.13Z" stroke="#14161D" stroke-opacity="1.000000" stroke-width="1.000000"/>
	<path id="Vector" d="M7.83 21.92C7.83 21.63 8.08 21.4 8.39 21.4L25.18 21.4C25.49 21.4 25.74 21.63 25.74 21.92C25.74 22.22 25.49 22.45 25.18 22.45L8.39 22.45C8.08 22.45 7.83 22.22 7.83 21.92ZM8.95 24.04C8.95 23.75 9.2 23.51 9.51 23.51L18.46 23.51C18.77 23.51 19.02 23.75 19.02 24.04C19.02 24.33 18.77 24.57 18.46 24.57L9.51 24.57C9.2 24.57 8.95 24.33 8.95 24.04ZM8.39 25.62C8.08 25.62 7.83 25.86 7.83 26.15C7.83 26.44 8.08 26.68 8.39 26.68L24.06 26.68C24.37 26.68 24.62 26.44 24.62 26.15C24.62 25.86 24.37 25.62 24.06 25.62L8.39 25.62ZM8.95 28.27C8.95 27.98 9.2 27.74 9.51 27.74L16.23 27.74C16.54 27.74 16.79 27.98 16.79 28.27C16.79 28.56 16.54 28.8 16.23 28.8L9.51 28.8C9.2 28.8 8.95 28.56 8.95 28.27ZM9.51 29.85C9.2 29.85 8.95 30.09 8.95 30.38C8.95 30.67 9.2 30.91 9.51 30.91L16.23 30.91C16.54 30.91 16.79 30.67 16.79 30.38C16.79 30.09 16.54 29.85 16.23 29.85L9.51 29.85Z" fill="#E4E8F4" fill-opacity="1.000000" fill-rule="evenodd"/>
	<path id="Vector" d="M3.28 26.11C3.09 26.11 2.94 26.26 2.94 26.43C2.94 26.61 3.09 26.75 3.28 26.75C3.68 26.75 3.99 26.87 4.23 27.12C4.95 27.84 4.85 29.35 4.85 29.39L4.85 33.47C4.85 34.5 5.15 35.29 5.74 35.82C6.46 36.46 7.36 36.51 7.6 36.51C7.63 36.51 7.65 36.51 7.66 36.51C7.85 36.5 7.99 36.35 7.98 36.17C7.97 35.99 7.81 35.86 7.62 35.87C7.62 35.87 6.82 35.9 6.21 35.36C5.76 34.95 5.53 34.31 5.53 33.47L5.52 29.41C5.53 29.34 5.64 27.61 4.73 26.68C4.63 26.59 4.53 26.5 4.42 26.43C4.53 26.36 4.63 26.28 4.73 26.18C5.64 25.26 5.53 23.53 5.53 23.47L5.53 19.4C5.53 18.56 5.75 17.92 6.21 17.51C6.8 16.97 7.61 17 7.63 17C7.81 17.01 7.97 16.87 7.98 16.7C7.99 16.52 7.85 16.37 7.66 16.36C7.61 16.36 6.56 16.31 5.75 17.04C5.15 17.58 4.85 18.37 4.85 19.4L4.85 23.5C4.88 23.92 4.83 25.14 4.23 25.75C3.99 25.99 3.68 26.11 3.28 26.11Z" fill="#3980FF" fill-opacity="1.000000" fill-rule="nonzero"/>
	<path id="Vector" d="M6.38 0.13L21.61 0.13C21.45 1.21 20.53 2.04 19.4 2.04L8.59 2.04C7.46 2.04 6.54 1.21 6.38 0.13Z" fill="#14161D" fill-opacity="1.000000" fill-rule="nonzero"/>
	<path id="Vector" d="M21.61 0.13C21.45 1.21 20.53 2.04 19.4 2.04L8.59 2.04C7.46 2.04 6.54 1.21 6.38 0.13L21.61 0.13Z" stroke="#14161D" stroke-opacity="1.000000" stroke-width="1.000000"/>
</svg>
