<svg width="285.000000" height="72.000000" viewBox="0 0 285 72" fill="none" xmlns="http://www.w3.org/2000/svg" xmlns:xlink="http://www.w3.org/1999/xlink">
	<desc>
			Created with Pixso.
	</desc>
	<defs>
		<linearGradient x1="37.319958" y1="30.274916" x2="31.185188" y2="24.853285" id="paint_linear_2754_399_0" gradientUnits="userSpaceOnUse">
			<stop stop-color="#3980FF"/>
			<stop offset="1.000000" stop-color="#0029BC"/>
		</linearGradient>
		<linearGradient x1="101.959625" y1="26.786224" x2="101.959625" y2="7.945835" id="paint_linear_2754_401_0" gradientUnits="userSpaceOnUse">
			<stop stop-color="#0029BC"/>
			<stop offset="1.000000" stop-color="#3980FF"/>
		</linearGradient>
		<linearGradient x1="121.258102" y1="26.787020" x2="121.258102" y2="7.946630" id="paint_linear_2754_402_0" gradientUnits="userSpaceOnUse">
			<stop stop-color="#0029BC"/>
			<stop offset="1.000000" stop-color="#3980FF"/>
		</linearGradient>
		<linearGradient x1="136.045563" y1="26.786749" x2="136.045563" y2="7.946358" id="paint_linear_2754_403_0" gradientUnits="userSpaceOnUse">
			<stop stop-color="#0029BC"/>
			<stop offset="1.000000" stop-color="#3980FF"/>
		</linearGradient>
		<linearGradient x1="146.705963" y1="26.787085" x2="146.705963" y2="7.946697" id="paint_linear_2754_404_0" gradientUnits="userSpaceOnUse">
			<stop stop-color="#0029BC"/>
			<stop offset="1.000000" stop-color="#3980FF"/>
		</linearGradient>
		<linearGradient x1="162.453003" y1="26.787020" x2="162.453003" y2="7.946630" id="paint_linear_2754_405_0" gradientUnits="userSpaceOnUse">
			<stop stop-color="#0029BC"/>
			<stop offset="1.000000" stop-color="#3980FF"/>
		</linearGradient>
		<linearGradient x1="177.727982" y1="26.786499" x2="177.727982" y2="7.946110" id="paint_linear_2754_406_0" gradientUnits="userSpaceOnUse">
			<stop stop-color="#0029BC"/>
			<stop offset="1.000000" stop-color="#3980FF"/>
		</linearGradient>
		<linearGradient x1="185.799835" y1="26.786369" x2="185.799835" y2="7.945978" id="paint_linear_2754_407_0" gradientUnits="userSpaceOnUse">
			<stop stop-color="#0029BC"/>
			<stop offset="1.000000" stop-color="#3980FF"/>
		</linearGradient>
		<linearGradient x1="185.799973" y1="26.786205" x2="185.799973" y2="7.945816" id="paint_linear_2754_408_0" gradientUnits="userSpaceOnUse">
			<stop stop-color="#0029BC"/>
			<stop offset="1.000000" stop-color="#3980FF"/>
		</linearGradient>
		<linearGradient x1="199.079727" y1="26.787020" x2="199.079727" y2="7.946630" id="paint_linear_2754_409_0" gradientUnits="userSpaceOnUse">
			<stop stop-color="#0029BC"/>
			<stop offset="1.000000" stop-color="#3980FF"/>
		</linearGradient>
		<linearGradient x1="13.085290" y1="41.657318" x2="26.569660" y2="52.594910" id="paint_linear_2754_423_0" gradientUnits="userSpaceOnUse">
			<stop stop-color="#0029BC"/>
			<stop offset="1.000000" stop-color="#3980FF"/>
		</linearGradient>
		<linearGradient x1="47.541176" y1="41.729328" x2="53.675983" y2="47.150963" id="paint_linear_2754_426_0" gradientUnits="userSpaceOnUse">
			<stop stop-color="#3980FF"/>
			<stop offset="1.000000" stop-color="#0029BC"/>
		</linearGradient>
		<linearGradient x1="71.775963" y1="30.347069" x2="58.291603" y2="19.409473" id="paint_linear_2754_427_0" gradientUnits="userSpaceOnUse">
			<stop stop-color="#0029BC"/>
			<stop offset="1.000000" stop-color="#3980FF"/>
		</linearGradient>
	</defs>
	<path id="Vector" d="M37.27 16.38L25.48 26.56L25.48 32L37.27 44.07L37.27 16.38Z" fill="url(#paint_linear_2754_399_0)" fill-opacity="1.000000" fill-rule="nonzero"/>
	<path id="Vector" d="M105.64 21.82C104.91 22.4 103.83 22.71 102.43 22.71C100.96 22.71 99.8 22.4 98.88 21.74C97.99 21.08 97.37 20.23 97.02 19.06L96.75 18.13L93.54 20L93.73 20.58C94.35 22.36 95.39 23.8 96.94 24.81C98.45 25.82 100.27 26.33 102.36 26.33C104.68 26.33 106.61 25.7 108.04 24.5C109.55 23.26 110.28 21.59 110.28 19.57C110.28 18.95 110.21 18.33 110.01 17.78C109.86 17.24 109.66 16.81 109.43 16.42C109.2 16 108.81 15.61 108.31 15.18C107.85 14.83 107.46 14.56 107.15 14.36C106.8 14.13 106.3 13.9 105.6 13.63C104.95 13.35 104.44 13.16 104.1 13.04C103.75 12.93 103.21 12.73 102.43 12.46C100.85 11.96 99.69 11.41 99.03 10.95C98.49 10.56 98.26 10.01 98.26 9.2C98.26 8.27 98.57 7.57 99.18 7.06C99.84 6.52 100.77 6.25 101.89 6.25C104.1 6.25 105.57 7.26 106.42 9.32L106.73 10.09L109.86 8.31L109.59 7.68C108.93 6.21 107.96 5 106.61 4.03C105.26 3.06 103.67 2.6 101.85 2.6C99.84 2.6 98.1 3.18 96.71 4.34C95.28 5.55 94.54 7.18 94.54 9.24C94.54 11.37 95.47 13 97.33 14.13C98.1 14.64 99.57 15.22 101.89 16C103.67 16.58 104.95 17.16 105.72 17.66C106.34 18.09 106.61 18.71 106.61 19.57C106.69 20.54 106.34 21.24 105.64 21.82Z" fill="url(#paint_linear_2754_401_0)" fill-opacity="1.000000" fill-rule="nonzero"/>
	<path id="Vector" d="M121.27 26.29C123.7 26.29 125.79 25.43 127.49 23.76C129.19 22.09 130.04 20 130.04 17.51C130.04 15.06 129.19 12.93 127.49 11.26C125.79 9.59 123.7 8.73 121.27 8.73C118.83 8.73 116.74 9.59 115.04 11.26C113.34 12.93 112.49 15.02 112.49 17.51C112.49 19.96 113.34 22.09 115.04 23.76C116.74 25.47 118.83 26.29 121.27 26.29ZM121.27 12.23C122.74 12.23 123.97 12.73 124.98 13.74C125.98 14.79 126.49 16 126.49 17.51C126.49 19.02 125.98 20.23 124.98 21.28C123.97 22.33 122.74 22.79 121.27 22.79C119.8 22.79 118.56 22.29 117.55 21.28C116.55 20.23 116.04 19.02 116.04 17.51C116.04 16 116.55 14.79 117.55 13.74C118.56 12.73 119.76 12.23 121.27 12.23Z" fill="url(#paint_linear_2754_402_0)" fill-opacity="1.000000" fill-rule="nonzero"/>
	<path id="Vector" d="M133.37 25.94L136.89 25.94L136.89 12.62L141.26 12.62L141.26 9.12L136.89 9.12C136.93 7.96 137.2 7.14 137.7 6.71C138.24 6.21 139.17 6.01 140.45 6.13L141.26 6.21L141.26 2.71L140.56 2.67C138.32 2.52 136.5 3.02 135.26 4.19C134.03 5.35 133.41 6.99 133.37 9.12L130.78 9.12L130.78 12.62L133.37 12.62L133.37 25.94Z" fill="url(#paint_linear_2754_403_0)" fill-opacity="1.000000" fill-rule="nonzero"/>
	<path id="Vector" d="M147.06 25.35C147.87 25.86 148.95 26.09 150.23 26.09C150.89 26.09 151.58 26.01 152.36 25.9L153.01 25.78L153.01 22.56L152.2 22.6C151.24 22.64 150.42 22.64 149.8 22.64C149.38 22.64 149.07 22.52 148.88 22.33C148.76 22.21 148.61 21.9 148.61 21.04L148.61 12.62L152.98 12.62L152.98 9.12L148.61 9.12L148.61 4.58L145.09 5.66L145.09 9.12L140.37 9.12L140.37 12.62L145.09 12.62L145.09 21.12C145.09 23.18 145.78 24.58 147.06 25.35Z" fill="url(#paint_linear_2754_404_0)" fill-opacity="1.000000" fill-rule="nonzero"/>
	<path id="Vector" d="M170.14 22.44L167.05 20.62C166.7 21.28 166.16 21.78 165.43 22.21C164.69 22.64 163.8 22.83 162.8 22.83C161.33 22.83 160.17 22.44 159.2 21.63C158.47 21 157.96 20.27 157.69 19.3L170.84 19.3L170.92 18.6C170.96 18.17 171 17.82 171 17.59C171 15.22 170.22 13.16 168.71 11.41C167.17 9.66 165.16 8.73 162.68 8.73C160.13 8.73 158.04 9.59 156.42 11.26C154.79 12.93 153.98 15.02 153.98 17.51C153.98 20.03 154.83 22.17 156.46 23.8C158.08 25.47 160.25 26.29 162.84 26.29C164.42 26.29 165.89 25.94 167.17 25.24C168.4 24.58 169.41 23.61 170.14 22.44ZM162.64 12.23C163.84 12.23 164.89 12.62 165.78 13.39C166.47 14.01 166.97 14.79 167.21 15.8L157.69 15.8C157.96 14.87 158.43 14.09 159.16 13.47C160.09 12.66 161.25 12.23 162.64 12.23Z" fill="url(#paint_linear_2754_405_0)" fill-opacity="1.000000" fill-rule="nonzero"/>
	<path id="Vector" d="M177.07 16.66C177.07 15.14 177.45 14.01 178.19 13.35C178.96 12.66 179.93 12.31 181.13 12.31L181.9 12.31L181.9 8.81L181.13 8.81C179.46 8.81 178.11 9.24 177.07 10.13L177.07 9.04L173.55 9.04L173.55 25.86L177.07 25.86L177.07 16.66Z" fill="url(#paint_linear_2754_406_0)" fill-opacity="1.000000" fill-rule="nonzero"/>
	<path id="Vector" d="M184.03 9.12L187.55 9.12L187.55 25.94L184.03 25.94L184.03 9.12Z" fill="url(#paint_linear_2754_407_0)" fill-opacity="1.000000" fill-rule="evenodd"/>
	<path id="Vector" d="M185.81 7.41C186.42 7.41 186.97 7.18 187.39 6.75C187.82 6.33 188.05 5.78 188.05 5.16C188.05 4.54 187.82 4 187.39 3.57C186.54 2.71 185.11 2.71 184.26 3.57C183.83 4 183.6 4.54 183.6 5.16C183.6 5.78 183.83 6.33 184.26 6.75C184.65 7.18 185.19 7.41 185.81 7.41Z" fill="url(#paint_linear_2754_408_0)" fill-opacity="1.000000" fill-rule="nonzero"/>
	<path id="Vector" d="M205.3 11.26C203.59 9.59 201.51 8.73 199.07 8.73C196.63 8.73 194.55 9.59 192.84 11.26C191.14 12.93 190.29 15.02 190.29 17.51C190.29 19.96 191.14 22.09 192.84 23.76C194.55 25.43 196.63 26.29 199.07 26.29C201.51 26.29 203.59 25.43 205.3 23.76C207 22.09 207.85 20 207.85 17.51C207.85 15.06 207 12.97 205.3 11.26ZM199.07 22.83C197.6 22.83 196.36 22.33 195.36 21.32C194.35 20.27 193.85 19.06 193.85 17.55C193.85 16.03 194.35 14.83 195.36 13.78C196.36 12.73 197.6 12.27 199.07 12.27C200.54 12.27 201.78 12.77 202.78 13.78C203.79 14.83 204.29 16.03 204.29 17.55C204.29 19.06 203.79 20.27 202.78 21.32C201.78 22.33 200.58 22.83 199.07 22.83Z" fill="url(#paint_linear_2754_409_0)" fill-opacity="1.000000" fill-rule="nonzero"/>
	<path id="Vector" d="M109.86 29L93.11 29L93.11 32.54L99.65 32.54L99.65 51.96L103.32 51.96L103.32 32.54L109.86 32.54L109.86 29Z" fill="#000000" fill-opacity="1.000000" fill-rule="nonzero"/>
	<path id="Vector" d="M117.05 34.75C114.5 34.75 112.41 35.61 110.79 37.28C109.16 38.95 108.35 41.04 108.35 43.53C108.35 46.05 109.2 48.19 110.82 49.82C112.45 51.49 114.61 52.31 117.21 52.31C118.79 52.31 120.26 51.96 121.54 51.26C122.81 50.56 123.82 49.63 124.55 48.42L121.46 46.6C121.11 47.26 120.57 47.76 119.83 48.19C119.1 48.62 118.21 48.81 117.21 48.81C115.74 48.81 114.58 48.42 113.61 47.61C112.87 46.99 112.37 46.25 112.1 45.28L125.25 45.28L125.33 44.58C125.36 44.15 125.4 43.8 125.4 43.57C125.4 41.2 124.63 39.14 123.12 37.39C121.57 35.65 119.53 34.75 117.05 34.75ZM117.05 38.25C118.25 38.25 119.29 38.64 120.18 39.41C120.88 40.03 121.38 40.81 121.61 41.82L112.1 41.82C112.37 40.89 112.84 40.11 113.57 39.49C114.5 38.64 115.66 38.25 117.05 38.25Z" fill="#000000" fill-opacity="1.000000" fill-rule="nonzero"/>
	<path id="Vector" d="M140.29 46.21C139.83 47.02 139.25 47.65 138.47 48.11C137.7 48.58 136.81 48.81 135.81 48.81C134.34 48.81 133.1 48.31 132.09 47.3C131.09 46.25 130.58 45.04 130.58 43.53C130.58 42.01 131.09 40.81 132.09 39.76C133.1 38.71 134.34 38.25 135.81 38.25C136.81 38.25 137.7 38.48 138.47 38.95C139.25 39.41 139.79 40 140.14 40.77L140.48 41.55L143.46 39.84L143.19 39.22C142.57 37.86 141.61 36.77 140.25 35.96C138.94 35.18 137.43 34.75 135.81 34.75C133.33 34.75 131.2 35.61 129.54 37.28C127.88 38.95 127.03 41.04 127.03 43.53C127.03 45.98 127.88 48.07 129.54 49.78C131.2 51.45 133.33 52.31 135.81 52.31C137.43 52.31 138.9 51.92 140.25 51.14C141.61 50.36 142.61 49.28 143.31 47.92L143.66 47.26L140.68 45.51L140.29 46.21Z" fill="#000000" fill-opacity="1.000000" fill-rule="nonzero"/>
	<path id="Vector" d="M153.56 34.75C151.81 34.75 150.35 35.26 149.19 36.23L149.19 29L145.67 29L145.67 51.96L149.19 51.96L149.19 43.18C149.19 41.47 149.57 40.19 150.35 39.41C151.12 38.64 152.12 38.25 153.36 38.25C154.48 38.25 155.3 38.56 155.88 39.14C156.46 39.76 156.73 40.62 156.73 41.78L156.73 51.92L160.25 51.92L160.25 41.78C160.25 39.68 159.63 37.98 158.43 36.69C157.27 35.41 155.64 34.75 153.56 34.75Z" fill="#000000" fill-opacity="1.000000" fill-rule="nonzero"/>
	<path id="Vector" d="M171.5 34.75C169.76 34.75 168.29 35.26 167.13 36.23L167.13 35.14L163.61 35.14L163.61 51.96L167.13 51.96L167.13 43.18C167.13 41.47 167.52 40.19 168.29 39.41C169.06 38.64 170.07 38.25 171.3 38.25C172.43 38.25 173.24 38.56 173.82 39.14C174.4 39.76 174.67 40.62 174.67 41.78L174.67 51.92L178.19 51.92L178.19 41.78C178.19 39.68 177.57 37.98 176.37 36.69C175.21 35.41 173.55 34.75 171.5 34.75Z" fill="#000000" fill-opacity="1.000000" fill-rule="nonzero"/>
	<path id="Vector" d="M189.36 34.75C186.93 34.75 184.84 35.61 183.14 37.28C181.44 38.95 180.59 41.04 180.59 43.53C180.59 45.98 181.44 48.11 183.14 49.78C184.84 51.45 186.93 52.31 189.36 52.31C191.8 52.31 193.89 51.45 195.59 49.78C197.29 48.11 198.14 46.01 198.14 43.53C198.14 41.08 197.29 38.95 195.59 37.28C193.89 35.61 191.8 34.75 189.36 34.75ZM189.36 48.81C187.89 48.81 186.66 48.31 185.65 47.3C184.65 46.25 184.14 45.04 184.14 43.53C184.14 42.01 184.65 40.81 185.65 39.76C186.66 38.71 187.89 38.25 189.36 38.25C190.83 38.25 192.07 38.75 193.08 39.76C194.08 40.81 194.58 42.01 194.58 43.53C194.58 45.04 194.08 46.25 193.08 47.3C192.07 48.31 190.83 48.81 189.36 48.81Z" fill="#000000" fill-opacity="1.000000" fill-rule="nonzero"/>
	<path id="Vector" d="M200.89 28.07L204.41 28.07L204.41 51.92L200.89 51.92L200.89 28.07Z" fill="#000000" fill-opacity="1.000000" fill-rule="evenodd"/>
	<path id="Vector" d="M215.93 34.75C213.49 34.75 211.41 35.61 209.7 37.28C208 38.95 207.15 41.04 207.15 43.53C207.15 45.98 208 48.11 209.7 49.78C211.41 51.45 213.49 52.31 215.93 52.31C218.37 52.31 220.45 51.45 222.16 49.78C223.86 48.11 224.71 46.01 224.71 43.53C224.71 41.08 223.86 38.95 222.16 37.28C220.45 35.61 218.37 34.75 215.93 34.75ZM215.93 48.81C214.46 48.81 213.22 48.31 212.22 47.3C211.21 46.25 210.71 45.04 210.71 43.53C210.71 42.01 211.21 40.81 212.22 39.76C213.22 38.71 214.46 38.25 215.93 38.25C217.4 38.25 218.64 38.75 219.64 39.76C220.65 40.81 221.15 42.01 221.15 43.53C221.15 45.04 220.65 46.25 219.64 47.3C218.64 48.31 217.4 48.81 215.93 48.81Z" fill="#000000" fill-opacity="1.000000" fill-rule="nonzero"/>
	<path id="Vector" d="M247.72 35.1L251.24 35.1L251.24 51.92L247.72 51.92L247.72 35.1Z" fill="#000000" fill-opacity="1.000000" fill-rule="evenodd"/>
	<path id="Vector" d="M247.91 29.59C247.49 30.01 247.25 30.56 247.25 31.18C247.25 31.8 247.49 32.34 247.91 32.77C248.34 33.2 248.88 33.43 249.5 33.43C250.11 33.43 250.66 33.2 251.08 32.77C251.51 32.34 251.74 31.8 251.74 31.18C251.74 30.56 251.51 30.01 251.08 29.59C250.19 28.73 248.76 28.73 247.91 29.59Z" fill="#000000" fill-opacity="1.000000" fill-rule="nonzero"/>
	<path id="Vector" d="M262.72 34.75C260.17 34.75 258.08 35.61 256.46 37.28C254.83 38.95 254.02 41.04 254.02 43.53C254.02 46.05 254.87 48.19 256.5 49.82C258.12 51.49 260.29 52.31 262.88 52.31C264.46 52.31 265.93 51.96 267.21 51.26C268.48 50.56 269.49 49.63 270.22 48.42L267.13 46.6C266.78 47.26 266.24 47.76 265.51 48.19C264.77 48.62 263.88 48.81 262.88 48.81C261.41 48.81 260.25 48.42 259.28 47.61C258.54 46.99 258.04 46.25 257.77 45.28L270.92 45.28L271 44.58C271.04 44.15 271.07 43.8 271.07 43.57C271.07 41.2 270.3 39.14 268.79 37.39C267.21 35.65 265.16 34.75 262.72 34.75ZM262.72 38.25C263.92 38.25 264.96 38.64 265.85 39.41C266.55 40.03 267.05 40.81 267.28 41.82L257.77 41.82C258.04 40.89 258.51 40.11 259.24 39.49C260.17 38.64 261.29 38.25 262.72 38.25Z" fill="#000000" fill-opacity="1.000000" fill-rule="nonzero"/>
	<path id="Vector" d="M283.87 44.07C283.18 43.33 282.33 42.79 281.32 42.48C280.43 42.21 279.54 41.94 278.65 41.7C277.88 41.51 277.18 41.2 276.68 40.85C276.29 40.58 276.1 40.27 276.1 39.84C276.1 39.33 276.29 38.95 276.72 38.67C277.22 38.33 277.84 38.17 278.54 38.17C280.08 38.17 281.01 38.71 281.48 39.84L281.82 40.66L284.84 38.87L284.53 38.25C284.03 37.16 283.22 36.27 282.17 35.65C281.13 35.02 279.89 34.71 278.54 34.71C276.87 34.71 275.44 35.18 274.32 36.15C273.16 37.12 272.58 38.36 272.58 39.84C272.58 41.08 272.97 42.09 273.7 42.91C274.4 43.65 275.25 44.19 276.26 44.5C277.15 44.77 278.03 45.04 278.92 45.28C279.7 45.47 280.39 45.78 280.9 46.13C281.28 46.4 281.48 46.71 281.48 47.14C281.48 47.72 281.28 48.07 280.86 48.34C280.32 48.66 279.58 48.85 278.73 48.85C277.88 48.85 277.11 48.66 276.49 48.27C275.91 47.92 275.48 47.41 275.25 46.79L274.94 45.94L271.89 47.76L272.12 48.38C272.58 49.59 273.39 50.56 274.55 51.3C275.71 52.03 277.11 52.38 278.69 52.38C280.47 52.38 281.98 51.92 283.14 50.99C284.34 50.01 284.96 48.73 284.96 47.22C285 45.9 284.61 44.89 283.87 44.07Z" fill="#000000" fill-opacity="1.000000" fill-rule="nonzero"/>
	<path id="Vector" d="M240.52 35.1L240.52 36.73C239.09 35.41 237.32 34.75 235.15 34.75C232.79 34.75 230.74 35.61 229.04 37.32C227.38 39.02 226.53 41.08 226.53 43.53C226.53 45.98 227.38 48.07 229.04 49.74C230.7 51.45 232.75 52.31 235.15 52.31C237.32 52.31 239.13 51.65 240.52 50.33L240.52 50.56C240.52 51.92 240.1 52.97 239.25 53.74C238.4 54.52 237.16 54.95 235.65 54.95C233.53 54.95 232.06 54.33 231.21 53.12L227.92 54.56C229.35 57.12 231.94 58.44 235.65 58.44C237.93 58.44 239.91 57.74 241.53 56.38C243.19 54.99 244.04 53.04 244.04 50.6L244.04 35.1L240.52 35.1ZM239.02 47.3C238.01 48.34 236.77 48.81 235.3 48.81C233.83 48.81 232.6 48.31 231.59 47.3C230.59 46.25 230.08 45.04 230.08 43.53C230.08 42.01 230.59 40.81 231.59 39.76C232.6 38.71 233.83 38.25 235.3 38.25C236.77 38.25 238.01 38.75 239.02 39.76C240.02 40.81 240.52 42.01 240.52 43.53C240.52 45 240.02 46.25 239.02 47.3Z" fill="#000000" fill-opacity="1.000000" fill-rule="nonzero"/>
	<path id="Vector" d="M37.27 72L0 36L19.33 36L37.27 54.4L37.27 72Z" fill="url(#paint_linear_2754_423_0)" fill-opacity="1.000000" fill-rule="nonzero"/>
	<path id="Vector" d="M37.27 0L0 36L9.86 45.7L37.27 17.59L37.27 0Z" fill="#3980FF" fill-opacity="1.000000" fill-rule="nonzero"/>
	<path id="Vector" d="M47.56 55.61L59.35 45.43L59.35 40L47.56 27.92L47.56 55.61Z" fill="url(#paint_linear_2754_426_0)" fill-opacity="1.000000" fill-rule="nonzero"/>
	<path id="Vector" d="M47.56 0L84.84 36L65.54 36L47.56 17.59L47.56 0Z" fill="url(#paint_linear_2754_427_0)" fill-opacity="1.000000" fill-rule="nonzero"/>
	<path id="Vector" d="M47.56 72L84.84 36L75.02 26.29L47.56 54.4L47.56 72Z" fill="#3980FF" fill-opacity="1.000000" fill-rule="nonzero"/>
	<path id="Vector" d="M98.57 68.34L98.57 64.38L96.59 67.65L96.09 67.65L94.12 64.42L94.12 68.34L93.07 68.34L93.07 62.36L94 62.36L96.36 66.33L98.68 62.36L99.57 62.36L99.57 68.34L98.57 68.34Z" fill="#000000" fill-opacity="1.000000" fill-rule="nonzero"/>
	<path id="Vector" d="M106.69 66.29C106.69 67.65 105.8 68.34 104.29 68.34L101.74 68.34L101.74 62.36L102.82 62.36L102.82 64.38L104.48 64.38C105.87 64.38 106.69 65 106.69 66.29ZM105.57 66.33C105.57 65.59 105.06 65.24 104.21 65.24L102.78 65.24L102.78 67.49L104.21 67.49C105.06 67.49 105.57 67.06 105.57 66.33ZM107.54 62.36L108.62 62.36L108.62 68.34L107.54 68.34L107.54 62.36Z" fill="#000000" fill-opacity="1.000000" fill-rule="nonzero"/>
	<path id="Vector" d="M118.75 62.36L118.75 68.34L117.67 68.34L117.67 63.3L114.58 63.3L114.58 68.34L113.49 68.34L113.49 62.36L118.75 62.36Z" fill="#000000" fill-opacity="1.000000" fill-rule="nonzero"/>
	<path id="Vector" d="M120.88 62.36L121.96 62.36L121.96 66.6L125.17 62.36L126.22 62.36L126.22 68.34L125.13 68.34L125.13 64.11L121.92 68.34L120.88 68.34L120.88 62.36Z" fill="#000000" fill-opacity="1.000000" fill-rule="nonzero"/>
	<path id="Vector" d="M135.92 62.36L135.92 68.34L128.26 68.34L128.26 62.36L129.35 62.36L129.35 67.41L131.55 67.41L131.55 62.36L132.63 62.36L132.63 67.41L134.84 67.41L134.84 62.36L135.92 62.36Z" fill="#000000" fill-opacity="1.000000" fill-rule="nonzero"/>
	<path id="Vector" d="M142.5 67.41L142.5 68.34L138.05 68.34L138.05 62.36L142.38 62.36L142.38 63.3L139.13 63.3L139.13 64.85L141.99 64.85L141.99 65.78L139.13 65.78L139.13 67.41L142.5 67.41Z" fill="#000000" fill-opacity="1.000000" fill-rule="nonzero"/>
	<path id="Vector" d="M149.61 68.34L149.61 64.38L147.64 67.65L147.14 67.65L145.16 64.42L145.16 68.34L144.12 68.34L144.12 62.36L145.05 62.36L147.41 66.33L149.73 62.36L150.62 62.36L150.62 68.34L149.61 68.34Z" fill="#000000" fill-opacity="1.000000" fill-rule="nonzero"/>
	<path id="Vector" d="M157.73 65.82L156.61 65.82L156.61 68.34L155.53 68.34L155.53 62.36L156.61 62.36L156.61 64.85L157.73 64.85L159.43 62.36L160.59 62.36L158.54 65.28L160.67 68.34L159.43 68.34L157.73 65.82Z" fill="#000000" fill-opacity="1.000000" fill-rule="nonzero"/>
	<path id="Vector" d="M161.44 65.35C161.44 63.57 162.8 62.29 164.65 62.29C166.51 62.29 167.86 63.57 167.86 65.35C167.86 67.14 166.51 68.42 164.65 68.42C162.8 68.42 161.44 67.1 161.44 65.35ZM166.74 65.35C166.74 64.15 165.85 63.26 164.65 63.26C163.45 63.26 162.57 64.15 162.57 65.35C162.57 66.56 163.45 67.45 164.65 67.45C165.81 67.45 166.74 66.56 166.74 65.35Z" fill="#000000" fill-opacity="1.000000" fill-rule="nonzero"/>
	<path id="Vector" d="M175.21 67.41L175.21 69.63L174.21 69.63L174.21 68.34L169.64 68.34L169.64 69.63L168.6 69.63L168.6 67.41L168.87 67.41C169.68 67.37 169.87 66.01 169.91 64.27L169.99 62.36L174.36 62.36L174.36 67.41L175.21 67.41ZM170.26 67.41L173.28 67.41L173.28 63.3L170.96 63.3L170.92 64.34C170.84 65.7 170.72 66.91 170.26 67.41Z" fill="#000000" fill-opacity="1.000000" fill-rule="nonzero"/>
	<path id="Vector" d="M177.65 67.68C177.65 67.88 177.61 68.03 177.45 68.42L177.03 69.63L176.33 69.63L176.68 68.31C176.45 68.19 176.29 68 176.29 67.68C176.29 67.26 176.6 66.99 176.99 66.99C177.38 66.99 177.65 67.26 177.65 67.68Z" fill="#000000" fill-opacity="1.000000" fill-rule="nonzero"/>
	<path id="Vector" d="M184.22 65.82L183.1 65.82L183.1 68.34L182.02 68.34L182.02 62.36L183.1 62.36L183.1 64.85L184.22 64.85L185.92 62.36L187.08 62.36L185.03 65.28L187.16 68.34L185.92 68.34L184.22 65.82Z" fill="#000000" fill-opacity="1.000000" fill-rule="nonzero"/>
	<path id="Vector" d="M187.93 65.35C187.93 63.57 189.29 62.29 191.14 62.29C193 62.29 194.35 63.57 194.35 65.35C194.35 67.14 193 68.42 191.14 68.42C189.29 68.42 187.93 67.1 187.93 65.35ZM193.23 65.35C193.23 64.15 192.34 63.26 191.14 63.26C189.94 63.26 189.05 64.15 189.05 65.35C189.05 66.56 189.94 67.45 191.14 67.45C192.3 67.45 193.23 66.56 193.23 65.35Z" fill="#000000" fill-opacity="1.000000" fill-rule="nonzero"/>
	<path id="Vector" d="M200.19 63.3L198.22 63.3L198.22 68.34L197.14 68.34L197.14 63.3L195.16 63.3L195.16 62.36L200.19 62.36L200.19 63.3Z" fill="#000000" fill-opacity="1.000000" fill-rule="nonzero"/>
	<path id="Vector" d="M201.04 65.35C201.04 63.57 202.4 62.29 204.25 62.29C206.11 62.29 207.46 63.57 207.46 65.35C207.46 67.14 206.11 68.42 204.25 68.42C202.4 68.42 201.04 67.1 201.04 65.35ZM206.34 65.35C206.34 64.15 205.45 63.26 204.25 63.26C203.05 63.26 202.16 64.15 202.16 65.35C202.16 66.56 203.05 67.45 204.25 67.45C205.45 67.45 206.34 66.56 206.34 65.35Z" fill="#000000" fill-opacity="1.000000" fill-rule="nonzero"/>
	<path id="Vector" d="M214.07 64.5C214.07 65.82 213.11 66.64 211.52 66.64L210.17 66.64L210.17 68.34L209.05 68.34L209.05 62.36L211.48 62.36C213.11 62.36 214.07 63.18 214.07 64.5ZM212.99 64.5C212.99 63.76 212.49 63.3 211.52 63.3L210.25 63.3L210.25 65.66L211.52 65.66C212.49 65.66 212.99 65.24 212.99 64.5Z" fill="#000000" fill-opacity="1.000000" fill-rule="nonzero"/>
	<path id="Vector" d="M220.53 66.29C220.53 67.65 219.64 68.34 218.13 68.34L215.58 68.34L215.58 62.36L216.67 62.36L216.67 64.38L218.33 64.38C219.72 64.38 220.53 65 220.53 66.29ZM219.41 66.33C219.41 65.59 218.91 65.24 218.06 65.24L216.63 65.24L216.63 67.49L218.06 67.49C218.91 67.49 219.41 67.06 219.41 66.33ZM221.38 62.36L222.47 62.36L222.47 68.34L221.38 68.34L221.38 62.36Z" fill="#000000" fill-opacity="1.000000" fill-rule="nonzero"/>
	<path id="Vector" d="M224.59 62.36L225.68 62.36L225.68 66.6L228.88 62.36L229.93 62.36L229.93 68.34L228.85 68.34L228.85 64.11L225.64 68.34L224.59 68.34L224.59 62.36ZM225.68 60.73L226.45 60.73C226.45 61.16 226.72 61.39 227.22 61.39C227.72 61.39 228 61.16 228 60.73L228.77 60.73C228.77 61.51 228.23 61.98 227.22 61.98C226.18 61.98 225.68 61.51 225.68 60.73Z" fill="#000000" fill-opacity="1.000000" fill-rule="nonzero"/>
	<path id="Vector" d="M239.75 64.5C239.75 65.82 238.78 66.64 237.2 66.64L235.85 66.64L235.85 68.34L234.72 68.34L234.72 62.36L237.16 62.36C238.75 62.36 239.75 63.18 239.75 64.5ZM238.63 64.5C238.63 63.76 238.13 63.3 237.16 63.3L235.88 63.3L235.88 65.66L237.16 65.66C238.13 65.66 238.63 65.24 238.63 64.5Z" fill="#000000" fill-opacity="1.000000" fill-rule="nonzero"/>
	<path id="Vector" d="M244.86 66.95L241.88 66.95L241.3 68.34L240.14 68.34L242.81 62.36L243.89 62.36L246.56 68.34L245.4 68.34L244.86 66.95ZM244.47 66.09L243.35 63.49L242.23 66.09L244.47 66.09Z" fill="#000000" fill-opacity="1.000000" fill-rule="nonzero"/>
	<path id="Vector" d="M247.95 62.36L252.59 62.36L252.59 63.3L249.03 63.3L249.03 64.77L250.81 64.77C252.24 64.77 253.02 65.39 253.02 66.52C253.02 67.72 252.16 68.38 250.66 68.38L247.99 68.38L247.99 62.36L247.95 62.36ZM250.58 67.49C251.43 67.49 251.89 67.14 251.89 66.52C251.89 65.9 251.47 65.59 250.58 65.59L249.03 65.59L249.03 67.49L250.58 67.49Z" fill="#000000" fill-opacity="1.000000" fill-rule="nonzero"/>
	<path id="Vector" d="M254.18 65.35C254.18 63.57 255.53 62.29 257.38 62.29C259.24 62.29 260.59 63.57 260.59 65.35C260.59 67.14 259.24 68.42 257.38 68.42C255.53 68.42 254.18 67.1 254.18 65.35ZM259.47 65.35C259.47 64.15 258.58 63.26 257.38 63.26C256.19 63.26 255.3 64.15 255.3 65.35C255.3 66.56 256.19 67.45 257.38 67.45C258.54 67.45 259.47 66.56 259.47 65.35Z" fill="#000000" fill-opacity="1.000000" fill-rule="nonzero"/>
	<path id="Vector" d="M266.43 63.3L264.46 63.3L264.46 68.34L263.38 68.34L263.38 63.3L261.41 63.3L261.41 62.36L266.43 62.36L266.43 63.3Z" fill="#000000" fill-opacity="1.000000" fill-rule="nonzero"/>
	<path id="Vector" d="M271.46 66.95L268.48 66.95L267.9 68.34L266.78 68.34L269.45 62.36L270.53 62.36L273.2 68.34L272.04 68.34L271.46 66.95ZM271.11 66.09L269.99 63.49L268.87 66.09L271.11 66.09Z" fill="#000000" fill-opacity="1.000000" fill-rule="nonzero"/>
	<path id="Vector" d="M279.04 67.41L279.04 68.34L274.55 68.34L274.55 62.36L278.89 62.36L278.89 63.3L275.64 63.3L275.64 64.85L278.5 64.85L278.5 65.78L275.64 65.78L275.64 67.41L279.04 67.41Z" fill="#000000" fill-opacity="1.000000" fill-rule="nonzero"/>
	<path id="Vector" d="M285 63.3L283.02 63.3L283.02 68.34L281.94 68.34L281.94 63.3L279.97 63.3L279.97 62.36L285 62.36L285 63.3Z" fill="#000000" fill-opacity="1.000000" fill-rule="nonzero"/>
</svg>
