<svg width="36.000000" height="42.000000" viewBox="0 0 36 42" fill="none" xmlns="http://www.w3.org/2000/svg" xmlns:xlink="http://www.w3.org/1999/xlink">
	<desc>
			Created with Pixso.
	</desc>
	<defs/>
	<path id="Vector" d="M17.41 4.54C14.49 4.54 12.11 6.91 12.11 9.84C12.11 12.76 14.49 15.14 17.41 15.14C20.33 15.14 22.71 12.76 22.71 9.84C22.71 6.91 20.33 4.54 17.41 4.54ZM17.41 13.62C15.32 13.62 13.62 11.92 13.62 9.84C13.62 7.75 15.32 6.05 17.41 6.05C19.49 6.05 21.19 7.75 21.19 9.84C21.19 11.92 19.49 13.62 17.41 13.62Z" fill="#FFFFFF" fill-opacity="1.000000" fill-rule="nonzero"/>
	<path id="Vector" d="M11.94 8.64Q11.81 9.22 11.81 9.84Q11.81 10.45 11.94 11.04Q12.05 11.54 12.25 12.01Q12.45 12.48 12.72 12.9Q13.04 13.38 13.45 13.79Q13.86 14.21 14.34 14.52Q14.76 14.8 15.23 15Q15.71 15.2 16.21 15.31Q16.79 15.44 17.41 15.44Q18.02 15.44 18.6 15.31Q19.11 15.2 19.59 15Q20.05 14.8 20.47 14.52Q20.95 14.21 21.36 13.79Q21.78 13.38 22.09 12.9Q22.37 12.48 22.57 12.01Q22.77 11.54 22.88 11.03Q23.01 10.45 23.01 9.84Q23.01 9.22 22.88 8.64Q22.77 8.14 22.57 7.66Q22.37 7.19 22.09 6.77Q21.78 6.29 21.36 5.88Q20.95 5.46 20.47 5.15Q20.05 4.88 19.59 4.68Q19.11 4.47 18.6 4.37Q18.02 4.24 17.41 4.24Q16.79 4.24 16.21 4.37Q15.71 4.47 15.23 4.68Q14.76 4.88 14.34 5.15Q13.86 5.46 13.45 5.88Q13.04 6.29 12.72 6.77Q12.45 7.19 12.25 7.66Q12.05 8.14 11.94 8.64ZM17.41 4.54C14.49 4.54 12.11 6.91 12.11 9.84C12.11 12.76 14.49 15.14 17.41 15.14C20.33 15.14 22.71 12.76 22.71 9.84C22.71 6.91 20.33 4.54 17.41 4.54ZM17.41 13.62C15.32 13.62 13.62 11.92 13.62 9.84C13.62 7.75 15.32 6.05 17.41 6.05C19.49 6.05 21.19 7.75 21.19 9.84C21.19 11.92 19.49 13.62 17.41 13.62ZM14 10.59Q13.92 10.22 13.92 9.84Q13.92 9.45 14 9.08Q14.07 8.78 14.2 8.48Q14.32 8.19 14.49 7.94Q14.68 7.63 14.94 7.37Q15.2 7.11 15.51 6.92Q15.76 6.75 16.05 6.62Q16.35 6.5 16.65 6.43Q17.02 6.35 17.41 6.35Q17.79 6.35 18.16 6.43Q18.47 6.5 18.76 6.62Q19.05 6.75 19.31 6.92Q19.61 7.11 19.87 7.37Q20.13 7.63 20.33 7.94Q20.5 8.19 20.62 8.48Q20.74 8.78 20.81 9.08Q20.89 9.45 20.89 9.84Q20.89 10.22 20.81 10.59Q20.74 10.9 20.62 11.19Q20.5 11.48 20.33 11.74Q20.13 12.04 19.87 12.3Q19.61 12.56 19.31 12.76Q19.05 12.93 18.76 13.05Q18.47 13.17 18.16 13.24Q17.79 13.32 17.41 13.32Q17.02 13.32 16.65 13.24Q16.35 13.17 16.05 13.05Q15.76 12.93 15.51 12.76Q15.2 12.56 14.94 12.3Q14.68 12.04 14.49 11.74Q14.32 11.48 14.2 11.19Q14.07 10.9 14 10.59Z" fill="#FFFFFF" fill-opacity="1.000000" fill-rule="evenodd"/>
	<path id="Vector" d="M34.06 0L0.75 0C0.33 0 0 0.33 0 0.75C0 9.92 2.94 15.99 7.57 16.59L7.57 18.92C7.57 24.09 11.58 28.34 16.65 28.72L16.65 34.85C12.21 35.11 10.59 37.69 10.59 40.12C10.59 40.54 10.93 40.88 11.35 40.88L23.46 40.88C23.88 40.88 24.22 40.54 24.22 40.12C24.22 37.69 22.61 35.11 18.16 34.85L18.16 28.72C23.24 28.34 27.25 24.09 27.25 18.92L27.25 16.59C31.87 15.99 34.82 9.92 34.82 0.75C34.82 0.33 34.48 0 34.06 0ZM1.52 1.51L7.57 1.51L7.57 15.07C3.98 14.44 1.66 9.28 1.52 1.51ZM22.64 39.36L12.18 39.36C12.55 37.43 14.41 36.33 17.41 36.33C20.41 36.33 22.26 37.43 22.64 39.36ZM25.74 18.92C25.74 23.51 22 27.25 17.41 27.25C12.82 27.25 9.08 23.51 9.08 18.92L9.08 1.51L25.74 1.51L25.74 18.92ZM27.25 15.07L27.25 1.51L33.3 1.51C33.16 9.28 30.84 14.44 27.25 15.07Z" fill="#FFFFFF" fill-opacity="1.000000" fill-rule="nonzero"/>
	<path id="Vector" d="M34.06 -0.3L0.75 -0.3Q0.64 -0.3 0.53 -0.28Q0.43 -0.26 0.34 -0.22Q0.25 -0.18 0.17 -0.13Q0.08 -0.07 0 0Q-0.07 0.08 -0.13 0.17Q-0.18 0.25 -0.22 0.34Q-0.26 0.43 -0.28 0.53Q-0.31 0.64 -0.31 0.75Q-0.31 4.18 0.23 7.06Q0.76 9.9 1.78 12.01Q2.8 14.14 4.24 15.38Q5.28 16.28 6.49 16.66Q6.87 16.78 7.27 16.85L7.27 18.92Q7.27 20 7.49 21.03Q7.67 21.88 7.99 22.69Q8.32 23.49 8.76 24.22Q9.29 25.07 9.99 25.82Q10.66 26.55 11.45 27.12Q12.16 27.64 12.96 28.03Q13.81 28.44 14.7 28.69Q15.51 28.91 16.35 29L16.35 34.57Q14.87 34.69 13.72 35.16Q12.54 35.64 11.74 36.46Q11.38 36.83 11.11 37.26Q10.82 37.7 10.63 38.2Q10.57 38.37 10.52 38.53Q10.29 39.29 10.29 40.12Q10.29 40.24 10.32 40.35Q10.34 40.44 10.38 40.53Q10.42 40.62 10.47 40.7Q10.53 40.79 10.6 40.87Q10.68 40.94 10.77 41Q10.85 41.06 10.94 41.09Q11.03 41.13 11.13 41.15Q11.24 41.18 11.35 41.18L23.46 41.18Q23.58 41.18 23.69 41.15Q23.79 41.13 23.88 41.09Q23.97 41.06 24.05 41Q24.14 40.94 24.21 40.87Q24.29 40.79 24.35 40.7Q24.4 40.62 24.44 40.53Q24.48 40.44 24.5 40.35Q24.52 40.24 24.52 40.12Q24.52 39.29 24.29 38.53Q24.24 38.37 24.18 38.2Q23.99 37.7 23.71 37.26Q23.43 36.83 23.07 36.46Q22.27 35.64 21.1 35.16Q19.94 34.69 18.46 34.57L18.46 29Q19.31 28.91 20.11 28.69Q21.01 28.44 21.86 28.03Q22.65 27.64 23.36 27.12Q24.15 26.55 24.83 25.82Q25.53 25.07 26.06 24.21Q26.5 23.49 26.82 22.69Q27.15 21.88 27.33 21.03Q27.55 20 27.55 18.92L27.55 16.85Q27.94 16.78 28.32 16.66Q29.53 16.28 30.58 15.38Q32.02 14.14 33.04 12.01Q34.05 9.9 34.58 7.06Q35.12 4.18 35.12 0.75Q35.12 0.64 35.1 0.53Q35.08 0.43 35.04 0.34Q35 0.25 34.94 0.17Q34.89 0.08 34.81 0Q34.73 -0.07 34.65 -0.13Q34.57 -0.18 34.47 -0.22Q34.38 -0.26 34.29 -0.28Q34.18 -0.3 34.06 -0.3ZM27.25 16.59C31.87 15.99 34.82 9.92 34.82 0.75C34.82 0.33 34.48 0 34.06 0L0.75 0C0.33 0 0 0.33 0 0.75C0 9.92 2.94 15.99 7.57 16.59L7.57 18.92C7.57 24.09 11.58 28.34 16.65 28.72L16.65 34.85C12.21 35.11 10.59 37.69 10.59 40.12C10.59 40.54 10.93 40.88 11.35 40.88L23.46 40.88C23.88 40.88 24.22 40.54 24.22 40.12C24.22 37.69 22.61 35.11 18.16 34.85L18.16 28.72C23.24 28.34 27.25 24.09 27.25 18.92L27.25 16.59ZM7.57 1.51L1.52 1.51C1.52 1.61 1.52 1.71 1.52 1.81C1.71 9.2 3.89 14.16 7.27 15.01C7.36 15.03 7.46 15.05 7.57 15.07L7.57 1.51ZM7.27 1.81L7.27 14.7Q6.22 14.41 5.33 13.56Q4.29 12.56 3.52 10.84Q2.74 9.11 2.31 6.76Q1.89 4.5 1.82 1.81L7.27 1.81ZM27.55 1.51L27.25 1.51L27.25 1.81L27.25 15.07C27.35 15.05 27.45 15.03 27.55 15.01C30.92 14.16 33.1 9.2 33.29 1.81C33.3 1.71 33.3 1.61 33.3 1.51L27.55 1.51ZM27.55 1.81L27.55 14.7Q28.59 14.41 29.48 13.56Q30.53 12.56 31.29 10.84Q32.07 9.11 32.5 6.76Q32.92 4.5 32.99 1.81L27.55 1.81ZM19.14 26.76Q18.29 26.95 17.41 26.95Q16.52 26.95 15.68 26.76Q14.97 26.61 14.29 26.32Q13.62 26.04 13.03 25.65Q12.33 25.19 11.73 24.6Q11.14 24 10.68 23.3Q10.29 22.71 10.01 22.04Q9.72 21.36 9.57 20.65Q9.38 19.81 9.38 18.92L9.38 1.81L25.44 1.81L25.44 18.92Q25.44 19.81 25.25 20.65Q25.09 21.36 24.8 22.04Q24.52 22.71 24.13 23.3Q23.68 24 23.08 24.6Q22.48 25.19 21.79 25.65Q21.19 26.04 20.53 26.32Q19.85 26.61 19.14 26.76ZM25.44 1.51L25.74 1.51L25.74 18.92C25.74 23.51 22 27.25 17.41 27.25C12.82 27.25 9.08 23.51 9.08 18.92L9.08 1.51L25.44 1.51ZM12.25 39.06C12.75 37.31 14.57 36.33 17.41 36.33C20.25 36.33 22.06 37.31 22.57 39.06C22.59 39.16 22.62 39.26 22.64 39.36L12.18 39.36C12.2 39.26 12.22 39.16 12.25 39.06ZM12.56 39.06L22.25 39.06Q22.14 38.72 21.96 38.42Q21.58 37.8 20.86 37.38Q19.57 36.63 17.41 36.63Q15.25 36.63 13.96 37.38Q13.24 37.8 12.85 38.42Q12.67 38.72 12.56 39.06Z" fill="#FFFFFF" fill-opacity="1.000000" fill-rule="evenodd"/>
</svg>
