<svg width="40.000000" height="40.000000" viewBox="0 0 40 40" fill="none" xmlns="http://www.w3.org/2000/svg" xmlns:xlink="http://www.w3.org/1999/xlink">
	<desc>
			Created with Pixso.
	</desc>
	<defs/>
	<path id="Vector" d="M37.44 0C33.95 0.2 27.66 0.8 24.79 2.53C21.1 4.74 17.46 8.91 14.52 12.9L8.66 13.67C7.53 13.81 6.55 14.56 6.09 15.6L4.72 18.77C4.61 19.02 4.62 19.31 4.75 19.55C4.88 19.79 5.12 19.96 5.38 20.01L9.38 20.71C9.08 21.21 8.83 21.65 8.63 22C8.09 22.94 8.26 24.13 9.02 24.9L9.25 25.12L8.3 26.07C7.34 27.02 7.34 28.58 8.3 29.53L10.46 31.69C10.92 32.15 11.54 32.41 12.19 32.41C12.84 32.41 13.46 32.15 13.92 31.69L14.87 30.74L15.09 30.97C15.55 31.42 16.15 31.68 16.8 31.68C17.21 31.68 17.62 31.57 17.99 31.36C18.34 31.16 18.77 30.91 19.28 30.61L19.98 34.61C20.03 34.87 20.2 35.11 20.44 35.24C20.57 35.31 20.72 35.34 20.86 35.34C20.98 35.34 21.1 35.32 21.22 35.27L24.39 33.9C25.43 33.44 26.18 32.46 26.32 31.33L27.09 25.47C31.09 22.53 35.25 18.89 37.46 15.2C39.19 12.33 39.79 6.04 39.99 2.55C40.03 1.88 39.8 1.24 39.34 0.75C38.85 0.24 38.16 -0.04 37.44 0L37.44 0ZM6.81 18.45L7.73 16.31C7.94 15.84 8.38 15.5 8.89 15.44L13.1 14.89C12.05 16.41 11.13 17.84 10.37 19.08L6.81 18.45ZM12.66 30.43C12.41 30.68 11.97 30.68 11.72 30.43L9.56 28.27C9.31 28.01 9.31 27.59 9.56 27.33L10.51 26.39L13.61 29.48L12.66 30.43ZM24.55 31.1C24.49 31.61 24.15 32.05 23.68 32.26L21.55 33.18L20.92 29.62C22.15 28.86 23.59 27.94 25.1 26.89L24.55 31.1ZM35.93 14.28C31.84 21.09 20.49 27.89 17.1 29.81C16.86 29.95 16.55 29.9 16.35 29.71L15.5 28.85C15.5 28.85 15.5 28.85 15.5 28.85L11.14 24.49C11.14 24.49 11.14 24.49 11.14 24.49L10.29 23.64C10.09 23.44 10.04 23.13 10.18 22.89C12.1 19.5 18.9 8.15 25.71 4.06C28.35 2.47 34.86 1.94 37.58 1.78C37.76 1.78 37.92 1.85 38.04 1.98C38.16 2.11 38.22 2.27 38.21 2.45C38.05 5.13 37.52 11.64 35.93 14.28L35.93 14.28Z" fill="#FFFFFF" fill-opacity="1.000000" fill-rule="nonzero"/>
	<path id="Vector" d="M28.83 6.51C27.59 6.51 26.42 6.99 25.54 7.87C23.73 9.68 23.73 12.63 25.54 14.45C26.42 15.33 27.59 15.81 28.83 15.81C30.07 15.81 31.24 15.33 32.12 14.45C33.94 12.63 33.94 9.68 32.12 7.87C31.24 6.99 30.08 6.51 28.83 6.51ZM30.85 13.17C30.31 13.71 29.59 14.01 28.83 14.01C28.07 14.01 27.35 13.71 26.82 13.17C25.7 12.06 25.7 10.25 26.82 9.14C27.36 8.6 28.07 8.31 28.83 8.31C29.59 8.31 30.31 8.6 30.85 9.14C31.96 10.25 31.96 12.06 30.85 13.17Z" fill="#FFFFFF" fill-opacity="1.000000" fill-rule="nonzero"/>
	<path id="Vector" d="M5.27 29.76C3.95 29.76 2.71 30.28 1.77 31.21C0.01 32.98 -0.02 38.1 0 39.11C0 39.6 0.4 39.99 0.88 40L1.01 40C2.81 40 7.17 39.82 8.78 38.22C9.71 37.28 10.23 36.04 10.23 34.72C10.23 33.39 9.71 32.15 8.78 31.21C7.84 30.28 6.6 29.76 5.27 29.76ZM7.51 36.95C6.74 37.72 4.15 38.12 1.8 38.19C1.86 36.04 2.25 33.27 3.04 32.48C3.64 31.88 4.43 31.55 5.27 31.55C6.12 31.55 6.91 31.88 7.51 32.48C8.11 33.08 8.44 33.87 8.44 34.72C8.44 35.56 8.11 36.36 7.51 36.95Z" fill="#FFFFFF" fill-opacity="1.000000" fill-rule="nonzero"/>
</svg>
