<svg width="51.000000" height="91.000000" viewBox="0 0 51 91" fill="none" xmlns="http://www.w3.org/2000/svg" xmlns:xlink="http://www.w3.org/1999/xlink">
	<desc>
			Created with Pixso.
	</desc>
	<defs/>
	<path id="Vector" d="M42.63 0C46.71 0 50.02 3.3 50.02 7.39L50.02 82.43C50.02 86.51 46.71 89.82 42.63 89.82L7.39 89.82C3.3 89.82 0 86.51 0 82.43L0 7.39C0 3.3 3.3 0 7.39 0L42.63 0Z" stroke="#14161D" stroke-opacity="1.000000" stroke-width="1.000000"/>
	<path id="Vector" d="M14 38.94C14 38.42 14.44 38 15 38L45 38C45.55 38 46 38.42 46 38.94C46 39.46 45.55 39.88 45 39.88L15 39.88C14.44 39.88 14 39.46 14 38.94ZM16 42.72C16 42.2 16.44 41.77 17 41.77L33 41.77C33.55 41.77 34 42.2 34 42.72C34 43.24 33.55 43.66 33 43.66L17 43.66C16.44 43.66 16 43.24 16 42.72ZM15 45.55C14.44 45.55 14 45.97 14 46.5C14 47.02 14.44 47.44 15 47.44L43 47.44C43.55 47.44 44 47.02 44 46.5C44 45.97 43.55 45.55 43 45.55L15 45.55ZM16 50.27C16 49.75 16.44 49.33 17 49.33L29 49.33C29.55 49.33 30 49.75 30 50.27C30 50.79 29.55 51.22 29 51.22L17 51.22C16.44 51.22 16 50.79 16 50.27ZM17 53.11C16.44 53.11 16 53.53 16 54.05C16 54.57 16.44 55 17 55L29 55C29.55 55 30 54.57 30 54.05C30 53.53 29.55 53.11 29 53.11L17 53.11Z" fill="#E4E8F4" fill-opacity="1.000000" fill-rule="evenodd"/>
	<path id="Vector" d="M5.87 46.42C5.53 46.42 5.26 46.68 5.26 46.99C5.26 47.31 5.53 47.57 5.87 47.57C6.57 47.57 7.13 47.78 7.56 48.22C8.84 49.51 8.67 52.21 8.67 52.28L8.67 59.57C8.67 61.4 9.21 62.82 10.27 63.77C11.54 64.91 13.15 65 13.58 65C13.64 65 13.68 64.99 13.69 64.99C14.02 64.98 14.28 64.71 14.26 64.39C14.24 64.08 13.95 63.83 13.63 63.85C13.61 63.86 12.18 63.91 11.1 62.94C10.29 62.21 9.88 61.07 9.88 59.57L9.87 52.32C9.88 52.19 10.09 49.09 8.45 47.44C8.28 47.27 8.1 47.12 7.9 47C8.1 46.87 8.28 46.72 8.45 46.55C10.09 44.89 9.88 41.8 9.88 41.71L9.88 34.42C9.88 32.92 10.28 31.79 11.09 31.06C12.16 30.09 13.61 30.13 13.63 30.14C13.96 30.16 14.24 29.91 14.26 29.6C14.28 29.28 14.02 29.01 13.69 29C13.61 29 11.72 28.92 10.27 30.22C9.21 31.17 8.67 32.59 8.67 34.42L8.67 41.75C8.72 42.5 8.63 44.69 7.57 45.77C7.13 46.21 6.57 46.42 5.87 46.42Z" fill="#3980FF" fill-opacity="1.000000" fill-rule="nonzero"/>
	<path id="Vector" d="M11.41 0L38.61 0C38.34 1.92 36.68 3.41 34.67 3.41L15.34 3.41C13.34 3.41 11.68 1.92 11.41 0Z" fill="#14161D" fill-opacity="1.000000" fill-rule="nonzero"/>
	<path id="Vector" d="M38.61 0C38.34 1.92 36.68 3.41 34.67 3.41L15.34 3.41C13.34 3.41 11.68 1.92 11.41 0L38.61 0Z" stroke="#14161D" stroke-opacity="1.000000" stroke-width="1.000000"/>
</svg>
