<svg width="100.000000" height="100.000000" viewBox="0 0 100 100" fill="none" xmlns="http://www.w3.org/2000/svg" xmlns:xlink="http://www.w3.org/1999/xlink">
	<desc>
			Created with Pixso.
	</desc>
	<defs/>
	<mask id="mask2754_1750" mask-type="alpha" maskUnits="userSpaceOnUse" x="0.000000" y="0.000000" width="100.000000" height="100.000000">
		<path id="Vector" d="M0 0L100 0L100 100L0 100L0 0Z" fill="#000000" fill-opacity="1.000000" fill-rule="evenodd"/>
	</mask>
	<g mask="url(#mask2754_1750)">
		<path id="Vector" d="M34.37 62.21C34.37 61.7 34.81 61.29 35.35 61.29L64.64 61.29C65.18 61.29 65.62 61.7 65.62 62.21C65.62 62.72 65.18 63.13 64.64 63.13L35.35 63.13C34.81 63.13 34.37 62.72 34.37 62.21ZM36.32 65.9C36.32 65.39 36.76 64.98 37.3 64.98L52.93 64.98C53.46 64.98 53.9 65.39 53.9 65.9C53.9 66.41 53.46 66.82 52.93 66.82L37.3 66.82C36.76 66.82 36.32 66.41 36.32 65.9ZM35.35 68.66C34.81 68.66 34.37 69.08 34.37 69.59C34.37 70.1 34.81 70.51 35.35 70.51L62.69 70.51C63.23 70.51 63.67 70.1 63.67 69.59C63.67 69.08 63.23 68.66 62.69 68.66L35.35 68.66ZM36.32 73.28C36.32 72.77 36.76 72.35 37.3 72.35L49.02 72.35C49.56 72.35 50 72.77 50 73.28C50 73.79 49.56 74.2 49.02 74.2L37.3 74.2C36.76 74.2 36.32 73.79 36.32 73.28ZM37.3 76.04C36.76 76.04 36.32 76.46 36.32 76.97C36.32 77.47 36.76 77.89 37.3 77.89L49.02 77.89C49.56 77.89 50 77.47 50 76.97C50 76.46 49.56 76.04 49.02 76.04L37.3 76.04Z" fill="#E4E8F4" fill-opacity="1.000000" fill-rule="evenodd"/>
		<path id="Vector" d="M19.34 69.52C19.01 69.52 18.75 69.77 18.75 70.07C18.75 70.38 19.01 70.63 19.34 70.63C20.02 70.63 20.57 70.84 20.99 71.27C22.24 72.53 22.07 75.17 22.07 75.24L22.07 82.35C22.07 84.14 22.6 85.53 23.63 86.46C24.88 87.57 26.45 87.65 26.87 87.65C26.93 87.65 26.96 87.65 26.97 87.65C27.3 87.64 27.55 87.37 27.53 87.06C27.52 86.76 27.23 86.52 26.91 86.54C26.9 86.54 25.5 86.59 24.45 85.65C23.65 84.93 23.25 83.82 23.25 82.35L23.25 75.27C23.26 75.15 23.46 72.12 21.86 70.51C21.69 70.35 21.51 70.2 21.33 70.07C21.51 69.95 21.69 69.8 21.86 69.64C23.46 68.02 23.26 65 23.25 64.91L23.25 57.8C23.25 56.33 23.65 55.22 24.44 54.51C25.48 53.57 26.9 53.61 26.92 53.61C27.24 53.63 27.52 53.39 27.53 53.08C27.55 52.78 27.3 52.51 26.97 52.5C26.89 52.5 25.05 52.42 23.64 53.69C22.6 54.63 22.07 56.01 22.07 57.8L22.07 64.95C22.12 65.69 22.03 67.82 21 68.87C20.57 69.31 20.02 69.52 19.34 69.52Z" fill="#3980FF" fill-opacity="1.000000" fill-rule="nonzero"/>
		<path id="Vector" d="M80.65 69.52C80.98 69.52 81.25 69.77 81.25 70.07C81.25 70.38 80.98 70.63 80.65 70.63C79.97 70.63 79.43 70.84 79 71.27C77.75 72.53 77.92 75.17 77.92 75.24L77.92 82.35C77.92 84.14 77.39 85.53 76.36 86.46C75.11 87.57 73.54 87.65 73.12 87.65C73.06 87.65 73.03 87.65 73.02 87.65C72.69 87.64 72.44 87.37 72.46 87.06C72.47 86.76 72.76 86.52 73.08 86.54C73.09 86.54 74.49 86.59 75.54 85.65C76.34 84.93 76.74 83.82 76.74 82.35L76.74 75.27C76.73 75.15 76.54 72.12 78.13 70.51C78.3 70.35 78.48 70.2 78.67 70.07C78.48 69.95 78.3 69.8 78.13 69.64C76.54 68.02 76.73 65 76.74 64.91L76.74 57.8C76.74 56.33 76.34 55.22 75.55 54.51C74.51 53.57 73.1 53.61 73.08 53.61C72.75 53.63 72.47 53.39 72.46 53.08C72.44 52.78 72.69 52.51 73.02 52.5C73.1 52.5 74.94 52.42 76.36 53.69C77.39 54.63 77.92 56.01 77.92 57.8L77.92 64.95C77.87 65.69 77.96 67.82 79 68.87C79.42 69.31 79.97 69.52 80.65 69.52Z" fill="#3980FF" fill-opacity="1.000000" fill-rule="nonzero"/>
		<path id="Vector" d="M75.9 18.25C75.95 18.55 76.21 18.77 76.51 18.77L82.97 18.77C86.84 18.77 89.97 21.9 89.97 25.77L89.97 91.75C89.97 95.61 86.84 98.75 82.97 98.75L16.99 98.75C13.13 98.75 10 95.61 10 91.75L10 25.77C10 21.9 13.13 18.77 16.99 18.77L23.48 18.77C23.78 18.77 24.04 18.55 24.09 18.25C24.15 17.87 23.86 17.52 23.48 17.52L16.99 17.52C12.44 17.52 8.75 21.21 8.75 25.77L8.75 91.75C8.75 96.3 12.44 100 16.99 100L82.97 100C87.53 100 91.22 96.3 91.22 91.75L91.22 25.77C91.22 21.21 87.53 17.52 82.97 17.52L76.51 17.52C76.13 17.52 75.84 17.87 75.9 18.25Z" fill="#14161D" fill-opacity="1.000000" fill-rule="nonzero"/>
		<path id="Vector" d="M72.63 22.31C72.63 34.64 62.64 44.63 50.31 44.63C37.99 44.63 28 34.64 28 22.31C28 9.99 37.99 0 50.31 0C62.64 0 72.63 9.99 72.63 22.31Z" fill="#FEF4FF" fill-opacity="1.000000" fill-rule="evenodd"/>
		<path id="Vector" d="M53.2 10.79L53.2 14C53.2 14.88 52.48 15.59 51.6 15.59L50 15.59C49.11 15.59 48.4 16.31 48.4 17.2C48.4 18.08 47.68 18.79 46.8 18.79L45.2 18.79L45.2 20.39L44.73 20.86C44.1 21.49 43.09 21.49 42.46 20.86L39.59 18M48.4 33.2L48.4 30.79L46.8 29.2L46.8 26.79L45.2 25.2L45.2 23.59L51.6 23.59C52.48 23.59 53.2 24.31 53.2 25.2L53.2 26.26C53.2 26.56 53.43 26.79 53.73 26.79C54.32 26.79 54.8 27.27 54.8 27.86C54.8 28.16 55.03 28.39 55.33 28.39L59.6 28.39M38.8 22C38.8 15.81 43.81 10.79 50 10.79C56.18 10.79 61.2 15.81 61.2 22C61.2 28.18 56.18 33.2 50 33.2C43.81 33.2 38.8 28.18 38.8 22Z" stroke="#000000" stroke-opacity="1.000000" stroke-width="1.000000"/>
	</g>
</svg>
