<svg width="157.000000" height="92.000000" viewBox="0 0 157 92" fill="none" xmlns="http://www.w3.org/2000/svg" xmlns:xlink="http://www.w3.org/1999/xlink">
	<desc>
			Created with Pixso.
	</desc>
	<defs/>
	<path id="Vector" d="M135.12 51.38C145.3 51.38 153.55 59.64 153.55 69.81C153.55 79.99 145.3 88.24 135.12 88.24C124.94 88.24 116.69 79.99 116.69 69.81C116.69 59.64 124.94 51.38 135.12 51.38Z" fill="#FEF4FF" fill-opacity="1.000000" fill-rule="evenodd"/>
	<path id="Vector" d="M131.14 77.6L135.42 74.39L141.85 74.39C142.44 74.39 142.92 73.91 142.92 73.32L142.92 63.69C142.92 63.1 142.44 62.62 141.85 62.62L129 62.62C128.41 62.62 127.93 63.1 127.93 63.69L127.93 73.32C127.93 73.91 128.41 74.39 129 74.39L131.14 74.39L131.14 77.6ZM132.21 66.9L138.64 66.9M132.21 70.11L136.5 70.11" stroke="#000000" stroke-opacity="1.000000" stroke-width="1.000000"/>
	<path id="Vector" d="M156.3 69.68C156.3 81.45 146.76 90.99 134.99 90.99C123.22 90.99 113.68 81.45 113.68 69.68C113.68 57.91 123.22 48.37 134.99 48.37C146.76 48.37 156.3 57.91 156.3 69.68Z" stroke="#14161D" stroke-opacity="1.000000" stroke-width="1.000000"/>
	<path id="Vector" d="M103.43 0C105.27 0 106.77 1.49 106.77 3.34L106.77 38.12C106.77 39.97 105.27 41.46 103.43 41.46L68.64 41.46C66.8 41.46 65.3 39.97 65.3 38.12L65.3 3.34C65.3 1.49 66.8 0 68.64 0L103.43 0Z" stroke="#14161D" stroke-opacity="1.000000" stroke-width="1.000000"/>
	<path id="Vector" d="M38.12 24.62C39.97 24.62 41.46 26.11 41.46 27.96L41.46 62.75C41.46 64.59 39.97 66.09 38.12 66.09L3.34 66.09C1.49 66.09 0 64.59 0 62.75L0 27.96C0 26.11 1.49 24.62 3.34 24.62L38.12 24.62Z" stroke="#14161D" stroke-opacity="1.000000" stroke-width="1.000000"/>
	<path id="Vector" d="M6.05 27.83L35.69 27.83C37.26 27.83 38.54 29.1 38.54 30.68L38.54 60.31C38.54 61.89 37.26 63.16 35.69 63.16L6.05 63.16C4.48 63.16 3.21 61.89 3.21 60.31L3.21 30.68C3.21 29.1 4.48 27.83 6.05 27.83Z" fill="#FEF4FF" fill-opacity="1.000000" fill-rule="evenodd"/>
	<path id="Vector" d="M68.99 7.94C68.99 5.59 70.9 3.68 73.25 3.68L98.82 3.68C101.18 3.68 103.08 5.59 103.08 7.94L103.08 22.86C103.08 25.21 101.18 27.12 98.82 27.12L73.25 27.12C70.9 27.12 68.99 25.21 68.99 22.86L68.99 7.94Z" fill="#FEF4FF" fill-opacity="1.000000" fill-rule="nonzero"/>
	<path id="Vector" d="M16.8 49.56L24.94 49.56L24.94 41.43L16.8 41.43L16.8 49.56ZM16.8 39.39L16.8 37.36C16.8 36.61 17.41 36 18.16 36L20.19 36M26.97 36L29.01 36C29.76 36 30.36 36.61 30.36 37.36L30.36 39.39M21.55 36L25.62 36M26.97 49.56L29.01 49.56C29.76 49.56 30.36 48.96 30.36 48.21L30.36 46.17M30.36 40.75L30.36 44.82M14.77 41.43L12.74 41.43C11.99 41.43 11.38 42.03 11.38 42.78L11.38 44.82M11.38 51.6L11.38 53.63C11.38 54.38 11.99 54.99 12.74 54.99L14.77 54.99M11.38 46.17L11.38 50.24M21.55 54.99L23.58 54.99C24.33 54.99 24.94 54.38 24.94 53.63L24.94 51.6M16.13 54.99L20.19 54.99" stroke="#000000" stroke-opacity="1.000000" stroke-width="1.000000"/>
	<path id="Vector" d="M82.57 35.11C83.01 35.11 83.37 34.76 83.37 34.32C83.37 33.87 83.01 33.52 82.57 33.52C82.13 33.52 81.77 33.87 81.77 34.32C81.77 34.76 82.13 35.11 82.57 35.11ZM85.77 35.11C86.21 35.11 86.57 34.76 86.57 34.32C86.57 33.87 86.21 33.52 85.77 33.52C85.33 33.52 84.97 33.87 84.97 34.32C84.97 34.76 85.33 35.11 85.77 35.11ZM89.76 34.32C89.76 34.76 89.41 35.11 88.97 35.11C88.52 35.11 88.17 34.76 88.17 34.32C88.17 33.87 88.52 33.52 88.97 33.52C89.41 33.52 89.76 33.87 89.76 34.32Z" fill="#7F7ADA" fill-opacity="1.000000" fill-rule="evenodd"/>
	<path id="Vector" d="M93.49 10.08L98.82 15.53L93.49 20.73" stroke="#3980FF" stroke-opacity="1.000000" stroke-width="1.000000" stroke-linejoin="round" stroke-linecap="round"/>
	<path id="Vector" d="M78.58 10.08L73.25 15.53L78.58 20.73" stroke="#3980FF" stroke-opacity="1.000000" stroke-width="1.000000" stroke-linejoin="round" stroke-linecap="round"/>
	<path id="Vector" d="M85.46 48.95C85.59 60.56 83.44 77.38 106.26 77.64" stroke="#7F7ADA" stroke-opacity="1.000000" stroke-width="1.000000" stroke-dasharray="2 3"/>
	<path id="Vector" d="M22.48 19.27C22.61 14.06 20.51 6.53 42.82 6.42L56.74 6.42" stroke="#3980FF" stroke-opacity="1.000000" stroke-width="1.000000" stroke-dasharray="2 3"/>
</svg>
