<svg width="20.000000" height="17.000000" viewBox="0 0 20 17" fill="none" xmlns="http://www.w3.org/2000/svg" xmlns:xlink="http://www.w3.org/1999/xlink">
	<desc>
			Created with Pixso.
	</desc>
	<defs/>
	<path id="telegram" d="M1.37 7.31C6.74 4.91 10.32 3.33 12.11 2.57C17.22 0.39 18.29 0.01 18.98 0C19.13 -0.01 19.47 0.03 19.69 0.21C19.88 0.37 19.93 0.58 19.96 0.73C19.98 0.87 20.01 1.21 19.99 1.47C19.71 4.46 18.51 11.71 17.9 15.05C17.64 16.47 17.13 16.94 16.64 16.99C15.57 17.09 14.76 16.26 13.72 15.57C12.1 14.48 11.19 13.8 9.61 12.73C7.8 11.5 8.97 10.83 10.01 9.73C10.28 9.44 14.99 5.04 15.08 4.64C15.1 4.59 15.11 4.41 15 4.31C14.89 4.21 14.73 4.24 14.62 4.27C14.46 4.31 11.87 6.06 6.85 9.54C6.11 10.05 5.45 10.31 4.85 10.29C4.2 10.28 2.93 9.91 1.99 9.6C0.84 9.21 -0.08 9.01 0 8.36C0.04 8.02 0.5 7.67 1.37 7.31Z" fill="#FFFFFF" fill-opacity="1.000000" fill-rule="nonzero"/>
</svg>
