<svg width="21.000000" height="21.000000" viewBox="0 0 21 21" fill="none" xmlns="http://www.w3.org/2000/svg" xmlns:xlink="http://www.w3.org/1999/xlink">
	<desc>
			Created with Pixso.
	</desc>
	<defs/>
	<path id="Vector" d="M17.63 2.31C16.64 1.31 15.46 0.52 14.15 -0.03C12.85 -0.57 11.45 -0.84 10.04 -0.84C4.12 -0.84 -0.7 3.98 -0.7 9.9C-0.7 11.79 -0.2 13.64 0.73 15.26L-0.78 20.83L4.9 19.33C6.47 20.19 8.24 20.64 10.04 20.64C15.95 20.64 20.77 15.82 20.77 9.91C20.77 7.04 19.66 4.34 17.63 2.31ZM10.04 18.82C8.43 18.82 6.86 18.39 5.49 17.58L5.16 17.38L1.78 18.27L2.68 14.98L2.47 14.64C1.58 13.22 1.1 11.58 1.1 9.9C1.1 4.98 5.11 0.97 10.03 0.97C12.41 0.97 14.65 1.9 16.33 3.59C17.16 4.42 17.82 5.41 18.27 6.49C18.72 7.57 18.95 8.74 18.94 9.91C18.96 14.83 14.96 18.82 10.04 18.82ZM14.94 12.15C14.66 12.02 13.34 11.37 13.1 11.27C12.86 11.19 12.68 11.14 12.5 11.4C12.31 11.67 11.8 12.28 11.65 12.46C11.5 12.64 11.34 12.66 11.07 12.52C10.8 12.39 9.93 12.1 8.91 11.19C8.11 10.47 7.58 9.59 7.42 9.32C7.26 9.05 7.39 8.91 7.54 8.77C7.65 8.65 7.81 8.46 7.94 8.31C8.07 8.15 8.12 8.04 8.21 7.86C8.29 7.68 8.25 7.53 8.19 7.4C8.12 7.27 7.58 5.94 7.36 5.4C7.15 4.88 6.92 4.95 6.76 4.94L6.24 4.94C6.05 4.94 5.77 5 5.52 5.27C5.28 5.54 4.59 6.19 4.59 7.51C4.59 8.84 5.55 10.11 5.68 10.29C5.81 10.47 7.58 13.18 10.27 14.34C10.91 14.62 11.4 14.78 11.79 14.9C12.43 15.11 13.02 15.08 13.48 15.01C14 14.94 15.08 14.36 15.29 13.73C15.52 13.1 15.52 12.57 15.44 12.46C15.37 12.34 15.21 12.28 14.94 12.15Z" fill="#FFFFFF" fill-opacity="1.000000" fill-rule="nonzero"/>
</svg>
